<?xml version="1.0" encoding="utf-8"?>
<!-- Generator: Adobe Illustrator 22.1.0, SVG Export Plug-In . SVG Version: 6.00 Build 0)  -->
<svg version="1.1" id="Layer_1" xmlns="http://www.w3.org/2000/svg" xmlns:xlink="http://www.w3.org/1999/xlink" x="0px" y="0px"
	 viewBox="0 0 150 60" style="enable-background:new 0 0 150 60;" xml:space="preserve">
<style type="text/css">
	.st0{fill:#FFFFFF;}
</style>
<g>
	<g>
		<path class="st0" d="M17.2,36.3c0,0,1.8,1.7,3.9,1.7c0.8,0,1.7-0.3,1.7-1.3c0-1.9-7.3-1.9-7.3-6.8c0-3,2.5-4.9,5.7-4.9
			c3.5,0,5.2,1.8,5.2,1.8L24.7,30c0,0-1.6-1.4-3.6-1.4c-0.8,0-1.7,0.4-1.7,1.3c0,2,7.3,1.7,7.3,6.8c0,2.7-2.1,5-5.7,5
			c-3.8,0-5.9-2.3-5.9-2.3L17.2,36.3z"/>
		<path class="st0" d="M29.1,33h-1.5v-3h1.6v-3.3H33v3.3h2.4v3H33v3.6c0,1.3,1.3,1.5,2.1,1.5c0.3,0,0.5,0,0.5,0v3.4
			c0,0-0.4,0.1-1.1,0.1c-1.9,0-5.4-0.5-5.4-4.4V33z"/>
		<path class="st0" d="M37,29.7h3.8v2c0,0.4,0,0.7,0,0.7h0c0.5-1.6,2-2.9,3.7-2.9c0.2,0,0.5,0,0.5,0v3.8c0,0-0.3-0.1-0.8-0.1
			c-0.9,0-2.4,0.3-3,2c-0.1,0.4-0.2,0.9-0.2,1.6v4.4H37V29.7z"/>
		<path class="st0" d="M51.5,29.5c3.4,0,5.4,2.4,5.4,5.6c0,0.4-0.1,1.2-0.1,1.2h-7.3c0.3,1.4,1.5,2.1,2.7,2.1c1.7,0,3.2-1.2,3.2-1.2
			l1.4,2.7c0,0-1.9,1.7-5,1.7c-4.2,0-6.4-3-6.4-6.1C45.4,32.1,47.7,29.5,51.5,29.5z M52.9,34.1c0-0.9-0.6-1.7-1.5-1.7
			c-1.1,0-1.7,0.8-1.9,1.7H52.9z"/>
		<path class="st0" d="M64.4,34.1h0.2v-0.2c0-1-0.7-1.3-1.7-1.3c-1.5,0-3.1,1.1-3.1,1.1L58.4,31c0,0,2-1.5,4.9-1.5
			c3.3,0,5.2,1.8,5.2,4.7v7.2h-3.6v-0.7c0-0.4,0-0.7,0-0.7h0c0,0-0.9,1.7-3.3,1.7c-2.2,0-4-1.4-4-3.8C57.7,34.5,62.6,34.1,64.4,34.1
			z M62.7,38.7c1,0,1.9-1.1,1.9-2.1v-0.2h-0.4c-1.2,0-2.7,0.4-2.7,1.3C61.6,38.2,61.9,38.7,62.7,38.7z"/>
		<path class="st0" d="M69.4,29.7h3.8v1c0,0.4,0,0.7,0,0.7h0c0.5-0.8,1.6-2,3.5-2c1.5,0,2.6,0.7,3.3,2h0c0.6-1,2-2,3.7-2
			c2.1,0,3.8,1.2,3.8,4.4v7.5h-3.9v-6.9c0-0.9-0.2-1.5-0.9-1.5c-1.2,0-1.9,0.9-2.1,2.2c-0.1,0.4-0.1,0.9-0.1,1.4v4.8h-3.9v-6.9
			c0-0.9-0.2-1.5-0.9-1.5c-1.2,0-1.9,0.9-2.1,2.1c-0.1,0.4-0.1,0.9-0.1,1.4v4.8h-3.9V29.7z"/>
		<path class="st0" d="M89.5,25.5H91v12.9c0,1.5,0.7,1.7,1.3,1.7c0.2,0,0.4,0,0.4,0v1.4c0,0-0.3,0-0.6,0c-0.9,0-2.6-0.3-2.6-2.8
			V25.5z"/>
		<path class="st0" d="M93.6,44.2c0,0,0.6,0.5,1.4,0.5c1,0,1.7-0.8,2.1-1.9l0.7-1.6L93.1,30h1.7l3.3,8.3c0.2,0.6,0.4,1.2,0.4,1.2h0
			c0,0,0.2-0.6,0.4-1.2l3.3-8.3h1.7l-5.6,13.7c-0.6,1.4-1.8,2.4-3.3,2.4c-1.2,0-2-0.7-2-0.7L93.6,44.2z"/>
		<path class="st0" d="M106.1,31.4h-1.4v-1.3h1.4v-0.5c0-3.8,2.6-4.2,3.9-4.2c0.4,0,0.7,0,0.7,0v1.4c0,0-0.2,0-0.5,0
			c-0.9,0-2.6,0.3-2.6,2.8v0.5h2.9v1.3h-2.9v9.9h-1.5V31.4z"/>
		<path class="st0" d="M116.6,29.7c3.1,0,4.7,2.4,4.7,5.2c0,0.3,0,0.8,0,0.8h-8.7c0.1,2.9,2.1,4.5,4.4,4.5c2.1,0,3.5-1.4,3.5-1.4
			l0.7,1.2c0,0-1.6,1.6-4.2,1.6c-3.4,0-5.9-2.4-5.9-5.9C111,32,113.5,29.7,116.6,29.7z M119.8,34.5c-0.1-2.4-1.5-3.5-3.2-3.5
			c-1.9,0-3.5,1.2-3.9,3.5H119.8z"/>
	</g>
	<path class="st0" d="M125.1,33.8c-0.3,0-0.6-0.3-0.6-0.6c0-3.8-3.1-6.9-6.9-6.9c-0.3,0-0.6-0.3-0.6-0.6s0.3-0.6,0.6-0.6
		c4.5,0,8.2,3.7,8.2,8.2C125.7,33.5,125.4,33.8,125.1,33.8z"/>
	<path class="st0" d="M129.6,34.2c-0.3,0-0.6-0.3-0.6-0.6c0-6.7-5.5-12.2-12.2-12.2c-0.3,0-0.6-0.3-0.6-0.6s0.3-0.6,0.6-0.6
		c7.4,0,13.5,6,13.5,13.5C130.2,33.9,129.9,34.2,129.6,34.2z"/>
	<path class="st0" d="M134,34.2c-0.3,0-0.6-0.3-0.6-0.6c0-9.2-7.4-16.6-16.6-16.6c-0.3,0-0.6-0.3-0.6-0.6s0.3-0.6,0.6-0.6
		c9.8,0,17.8,8,17.8,17.8C134.6,33.9,134.3,34.2,134,34.2z"/>
</g>
</svg>
